Coordinates
version=1
nRows=32
nColumns=22
inDegrees=yes

Units are S.I. units (second, meters, Newtons, ...)
If the header above contains a line with 'inDegrees', this indicates whether rotational values are in degrees (yes) or radians (no).

endheader
time	pelvis_tilt	pelvis_list	pelvis_rotation	pelvis_tx	pelvis_ty	pelvis_tz	hip_flexion_r	hip_adduction_r	hip_rotation_r	knee_angle_r	ankle_angle_r	subtalar_angle_r	hip_flexion_l	hip_adduction_l	hip_rotation_l	knee_angle_l	ankle_angle_l	subtalar_angle_l	lumbar_extension	lumbar_bending	lumbar_rotation
      5.75000000	     -3.87861988	      4.13063019	    -99.26189611	      0.88400095	      0.92954411	      0.50774218	     32.64557290	     -0.74926585	    -31.16624915	    -29.30741755	      1.58572217	     -5.58840266	     -6.20929074	    -10.80947763	      2.01857005	    -35.26780620	      6.74805351	     20.46171361	      0.27308572	     10.49595964	    -14.80694119
      5.76000000	     -3.72007486	      4.15506687	   -100.12717692	      0.87866804	      0.93084883	      0.51678689	     32.38032621	     -0.32886858	    -30.35283521	    -29.71332496	      1.89995011	     -6.03824532	     -5.05331492	    -10.65354034	      2.25216376	    -37.93553944	      5.44732629	     20.16196734	      0.29416965	     10.41082011	    -14.55120831
      5.77000000	     -3.59520040	      4.16035373	   -100.96294096	      0.87329410	      0.93218589	      0.52558380	     32.03159090	      0.13146786	    -29.59183167	    -30.01613831	      2.27600154	     -6.45119772	     -3.82818643	    -10.53249555	      2.53003682	    -40.63418422	      4.28802025	     19.61964474	      0.28262760	     10.33721647	    -14.32897067
      5.78000000	     -3.50956234	      4.15609713	   -101.76970534	      0.86791828	      0.93354792	      0.53414776	     31.60834919	      0.63147096	    -28.87766764	    -30.21716227	      2.69417414	     -6.80510436	     -2.55119500	    -10.45466590	      2.84024519	    -43.30349076	      3.30779526	     18.84352995	      0.24902443	     10.28914072	    -14.12729373
      5.79000000	     -3.47507132	      4.14114317	   -102.55747958	      0.86252706	      0.93493139	      0.54249511	     31.11803303	      1.18010401	    -28.19665662	    -30.33916734	      3.13788811	     -7.07591588	     -1.25717113	    -10.42991075	      3.18209995	    -45.88364187	      2.54244754	     17.90959959	      0.18882754	     10.27840831	    -13.93159686
      5.80000000	     -3.47861223	      4.11605419	   -103.33296684	      0.85712178	      0.93634320	      0.55062951	     30.56685884	      1.76455022	    -27.53506807	    -30.38484811	      3.59525607	     -7.27227888	      0.03852206	    -10.44849573	      3.54361737	    -48.32965748	      2.00943259	     16.83983169	      0.10380854	     10.29024776	    -13.75165125
      5.81000000	     -3.51652867	      4.10027648	   -104.09740109	      0.85170380	      0.93777916	      0.55856879	     29.97128218	      2.38954687	    -26.87623951	    -30.34500181	      4.04665967	     -7.39889634	      1.33827018	    -10.50251837	      3.94936268	    -50.60084463	      1.71279644	     15.71551028	      0.02162473	     10.32630762	    -13.56900846
      5.82000000	     -3.57777544	      4.07556881	   -104.86851673	      0.84624926	      0.93925660	      0.56632752	     29.32358997	      3.03870075	    -26.21684384	    -30.24125410	      4.47847622	     -7.47194958	      2.60936838	    -10.58515588	      4.36259749	    -52.66688384	      1.60284316	     14.52332536	     -0.07775807	     10.37021226	    -13.38219063
      5.83000000	     -3.64979700	      4.04383880	   -105.65331341	      0.84075360	      0.94077125	      0.57392054	     28.62961463	      3.70131551	    -25.54614154	    -30.07664219	      4.89316874	     -7.50812447	      3.84248500	    -10.68197783	      4.78354085	    -54.50401054	      1.63071799	     13.28393110	     -0.18672812	     10.40976328	    -13.18774430
      5.84000000	     -3.72618453	      4.01528397	   -106.45057057	      0.83521050	      0.94230390	      0.58134548	     27.90117724	      4.37351109	    -24.86147271	    -29.85023138	      5.27584624	     -7.52284321	      5.04341062	    -10.78647569	      5.22407493	    -56.10035471	      1.74925988	     12.04039331	     -0.29123484	     10.43978266	    -12.98569785
      5.85000000	     -3.79334474	      3.98298192	   -107.26511207	      0.82961604	      0.94385093	      0.58863368	     27.13405880	      5.03685919	    -24.16508459	    -29.56741768	      5.63952934	     -7.53149810	      6.19336697	    -10.88009008	      5.68271236	    -57.43793117	      1.92606259	     10.82190922	     -0.38966668	     10.44544996	    -12.76856343
      5.86000000	     -3.84818075	      3.95026140	   -108.10376963	      0.82396024	      0.94537854	      0.59575719	     26.34312808	      5.69176391	    -23.43756976	    -29.24291253	      5.98126911	     -7.54376671	      7.29349190	    -10.96203259	      6.15294649	    -58.51878771	      2.15084698	      9.64990498	     -0.48312598	     10.42420556	    -12.53988170
      5.87000000	     -3.88630887	      3.91967198	   -108.96897523	      0.81824291	      0.94686432	      0.60270949	     25.53531098	      6.33200288	    -22.67787991	    -28.88307680	      6.30300122	     -7.56520456	      8.34190548	    -11.02602485	      6.63763593	    -59.34221381	      2.42943493	      8.55027584	     -0.56788904	     10.37323264	    -12.29621507
      5.88000000	     -3.90652637	      3.89886418	   -109.86238699	      0.81247511	      0.94828790	      0.60947249	     24.72340619	      6.95571531	    -21.88797695	    -28.49404492	      6.60385841	     -7.59639419	      9.34571525	    -11.07307240	      7.13648779	    -59.91394336	      2.76854028	      7.53675881	     -0.63846741	     10.29606739	    -12.03643324
      5.89000000	     -3.91024096	      3.89572360	   -110.78826845	      0.80666542	      0.94962316	      0.61602120	     23.92206583	      7.56296099	    -21.07303052	    -28.08667312	      6.88260629	     -7.63412172	     10.31258015	    -11.10987520	      7.64367466	    -60.24331790	      3.18427226	      6.61727187	     -0.69188675	     10.19918570	    -11.75585566
      5.90000000	     -3.90314375	      3.91398766	   -111.74764676	      0.80082530	      0.95086376	      0.62234430	     23.13555525	      8.15826776	    -20.23754841	    -27.66544045	      7.14045451	     -7.67363971	     11.24595956	    -11.14733741	      8.15491699	    -60.34079988	      3.67423512	      5.78493580	     -0.72974443	     10.09316470	    -11.45490210
      5.91000000	     -3.88968120	      3.96025756	   -112.74184139	      0.79495657	      0.95200269	      0.62844805	     22.36570143	      8.74774239	    -19.38820073	    -27.22593949	      7.37083159	     -7.70979157	     12.14803223	    -11.19965048	      8.66127806	    -60.21187404	      4.23139667	      5.01994097	     -0.74647641	      9.98724500	    -11.12375222
      5.92000000	     -3.87754515	      4.04976595	   -113.77264407	      0.78904527	      0.95302279	      0.63431964	     21.62137378	      9.35207908	    -18.50496484	    -26.75975272	      7.54760180	     -7.74026516	     13.04015971	    -11.29324246	      9.15143133	    -59.87740212	      4.83012935	      4.41973779	     -0.73200417	      9.89710059	    -10.76638747
      5.93000000	     -3.87870740	      4.12100931	   -114.81342472	      0.78316596	      0.95396145	      0.64001299	     20.85685806	      9.93460321	    -17.63260688	    -26.31563021	      7.77049845	     -7.77344684	     13.84857734	    -11.39712657	      9.65461702	    -59.33820726	      5.49912464	      3.56378512	     -0.75492530	      9.81321977	    -10.40114631
      5.94000000	     -3.88772073	      4.23600511	   -115.88403164	      0.77722103	      0.95478709	      0.64553686	     20.10404825	     10.53925046	    -16.73486805	    -25.83551155	      7.95146563	     -7.80456448	     14.63528614	    -11.56188997	     10.12559274	    -58.60209793	      6.19201812	      2.78581585	     -0.74142570	      9.75370935	    -10.01189326
      5.95000000	     -3.91045321	      4.36285916	   -116.96830183	      0.77127907	      0.95552023	      0.65089663	     19.34311719	     11.14759780	    -15.80995412	    -25.34647671	      8.11478669	     -7.83662868	     15.37831746	    -11.76465298	     10.58514097	    -57.69813456	      6.89889095	      1.96814634	     -0.73183226	      9.71511270	     -9.61263058
      5.96000000	     -3.94227782	      4.50231699	   -118.06590272	      0.76533068	      0.95616045	      0.65612311	     18.57527856	     11.75472370	    -14.85991494	    -24.85185909	      8.27097016	     -7.86942828	     16.07599412	    -11.99940009	     11.02998674	    -56.63736624	      7.61871578	      1.14154849	     -0.71937226	      9.69296167	     -9.20532913
      5.97000000	     -3.97607939	      4.64813081	   -119.17846033	      0.75937560	      0.95672845	      0.66124171	     17.79400239	     12.35139424	    -13.87221319	    -24.34900325	      8.41157039	     -7.89947341	     16.72470647	    -12.25302321	     11.45489488	    -55.43470963	      8.32190807	      0.36281018	     -0.70307075	      9.67802390	     -8.79621872
      5.98000000	     -4.00717006	      4.79256885	   -120.29620514	      0.75349551	      0.95721412	      0.66625601	     17.01643549	     12.91681069	    -12.86584829	    -23.87438302	      8.57159445	     -7.92854292	     17.32871800	    -12.49216586	     11.89286886	    -54.12004560	      9.02899096	     -0.40782109	     -0.69349922	      9.66919999	     -8.37516795
      5.99000000	     -4.01647142	      4.94050319	   -121.43043451	      0.74764355	      0.95764035	      0.67119531	     16.23850439	     13.44488150	    -11.81135134	    -23.39955667	      8.71017337	     -7.95032641	     17.89858334	    -12.71073854	     12.31437913	    -52.70244120	      9.67143485	     -1.03146675	     -0.66555169	      9.64804701	     -7.96250588
      6.00000000	     -4.00048131	      5.08900522	   -122.57322388	      0.74190493	      0.95799250	      0.67605168	     15.48825816	     13.92045115	    -10.72860708	    -22.96741052	      8.85916169	     -7.96872044	     18.44573508	    -12.87583757	     12.76201129	    -51.21479385	     10.26690531	     -1.52929824	     -0.62725167	      9.61887110	     -7.54733351
      6.01000000	     -3.94992128	      5.21414789	   -123.72695584	      0.73624456	      0.95831168	      0.68089452	     14.73568723	     14.31688188	     -9.65113799	    -22.56086083	      9.03975160	     -7.97971612	     18.94105118	    -12.97385041	     13.20654539	    -49.65335928	     10.79456390	     -1.94756102	     -0.58334609	      9.55940097	     -7.14785355
      6.02000000	     -3.85936817	      5.33893757	   -124.89234898	      0.73073052	      0.95857242	      0.68565408	     14.02695668	     14.64743248	     -8.54516972	    -22.19898889	      9.21150162	     -7.98356165	     19.43143675	    -12.99276854	     13.69150269	    -48.06063694	     11.21912406	     -2.18555039	     -0.52310949	      9.48306893	     -6.74641336
      6.03000000	     -3.72304732	      5.49903661	   -126.05816744	      0.72535277	      0.95871352	      0.69033452	     13.40410808	     14.92678972	     -7.45082936	    -21.88436298	      9.38975780	     -7.99485416	     19.97164779	    -12.95544368	     14.22028887	    -46.46768270	     11.55871831	     -2.24569271	     -0.40351307	      9.40664953	     -6.35325134
      6.04000000	     -3.55728131	      5.58968550	   -127.23986916	      0.72009262	      0.95890852	      0.69500117	     12.74947956	     15.10925690	     -6.33789306	    -21.60018533	      9.57451185	     -7.98966121	     20.42360629	    -12.82157212	     14.75549296	    -44.84043488	     11.79877715	     -2.19847706	     -0.33233905	      9.28195539	     -5.95400181
      6.05000000	     -3.37288023	      5.65853529	   -128.40814534	      0.71496697	      0.95908401	      0.69964092	     12.11137245	     15.22862761	     -5.24976248	    -21.34785534	      9.76571644	     -7.97123581	     20.85564886	    -12.62804117	     15.32203806	    -43.21435016	     11.97406838	     -2.01534836	     -0.27067555	      9.14368303	     -5.57067978
      6.06000000	     -3.17457787	      5.71640826	   -129.55998817	      0.70995829	      0.95922600	      0.70424575	     11.49593831	     15.29976732	     -4.18280710	    -21.12081957	      9.96111421	     -7.94469724	     21.28404559	    -12.39898743	     15.89719635	    -41.60143234	     12.09443822	     -1.70628922	     -0.21072952	      9.00028432	     -5.20103552
